<svg id="Layer_1" data-name="Layer 1" xmlns="http://www.w3.org/2000/svg" viewBox="0 0 1881.74 1500"><defs><style>.cls-1{fill:#ce1717;}.cls-2{fill:#151f6b;}.cls-3{fill:none;stroke:#151f6b;stroke-miterlimit:10;stroke-width:128.27px;}</style></defs><title>Blue Icon</title><path class="cls-1" d="M1405.48,433.67h-356.8q-32.86-81.33-99.95-148.41c-4.93-4.93-10.13-9.86-15.06-14.51h627.07c8.21,0,13.42,5.75,13.14,14.51C1573.06,325.78,1592.23,433.67,1405.48,433.67Z"/><path class="cls-1" d="M1461.07,699H1069.22a451.86,451.86,0,0,0,10.68-98.85,447,447,0,0,0-4.38-64.08h540.54c8.49,0,13.42,5.75,13.42,14.51C1628.38,591.12,1647.55,699,1461.07,699Z"/><path class="cls-1" d="M1184.23,1233.25h-93.92L976.67,1070.32h362.55c8.49,0,13.42,5.75,13.42,14.79C1351.81,1125.64,1371,1233.25,1184.23,1233.25Z"/><path class="cls-1" d="M1516.38,815.94c0-8.76-4.93-14.51-13.14-14.51h-471a450.66,450.66,0,0,1-34,55.59,474.69,474.69,0,0,1-78,85.16l-.27.27c-6.85,5.75-14,11.23-21.09,16.7l3.56,5.2H1348C1534.73,964.35,1515.56,856.46,1516.38,815.94Z"/><path class="cls-2" d="M747.23,1232.63,467.58,832.16v400.46H300.1V267.37H632.95c91.23,0,170.46,33,235.48,98s98,144,98,234.86c0,70.47-20.33,134.67-60.42,190.79-40.2,56.28-92.13,96.72-154.37,120.21l-19.5,7.36,219.41,314ZM467.58,766.21H632.95c45.52,0,85-16.38,117.29-48.69s48.69-71.77,48.69-117.29c0-45.09-16.37-84.43-48.65-116.95s-71.79-49-117.33-49H467.58Z"/><rect class="cls-3" x="84.57" y="81.64" width="1714.29" height="1336.72" rx="52.78" ry="52.78"/></svg>