<svg id="Layer_1" data-name="Layer 1" xmlns="http://www.w3.org/2000/svg" viewBox="0 0 2000 226.32"><defs><style>.cls-1{fill:#ce1717;}.cls-2{fill:#fff;}</style></defs><title>White Main</title><path class="cls-1" d="M173.23,16.07V62.12H49.84c-36.26,0-36.26-46.06-36.26-46.06Z"/><path class="cls-1" d="M173.23,92.69v45.09H85.88c-36.26,0-36.26-45.09-36.26-45.09Z"/><path class="cls-1" d="M90.61,169h82.61v44.47H126.89C90.61,213.45,90.61,169,90.61,169Z"/><path class="cls-2" d="M351.56,204.16c-1.58-3.88-3.27-8.59-5.09-14-1.48-4.32-2.83-8.25-4.08-11.82s-2.38-6.86-3.46-9.94-2.09-6-3.09-8.83-2-5.64-3.21-8.44a49.34,49.34,0,0,0-9.39-15.8,37.94,37.94,0,0,0-15.3-10.07,49.22,49.22,0,0,0,14.93-8.07,59,59,0,0,0,11.73-12.31,57.12,57.12,0,0,0,7.67-15.16A53.81,53.81,0,0,0,345,72.75a56.83,56.83,0,0,0-4.46-22.61A55.12,55.12,0,0,0,328.09,32a56.62,56.62,0,0,0-18.85-12.06,63.15,63.15,0,0,0-23.58-4.35l-78.41.24V214.47h38V135.41h14.38a43.6,43.6,0,0,1,15.5,2.5,32.86,32.86,0,0,1,11.29,7,41.72,41.72,0,0,1,8.05,10.7,73,73,0,0,1,5.59,13.66l14.13,45.24h42.44A69.07,69.07,0,0,1,351.56,204.16ZM303.83,88.06a29.14,29.14,0,0,1-7.09,9.57,31,31,0,0,1-10.57,6.09,39.71,39.71,0,0,1-13,2.11H245.28V43.92h27.85a35.68,35.68,0,0,1,13,2.37,32.13,32.13,0,0,1,10.57,6.59,31.72,31.72,0,0,1,7.09,9.94,30.2,30.2,0,0,1,2.61,12.68A29.42,29.42,0,0,1,303.83,88.06Z"/><path class="cls-2" d="M569.95,74.62a104.7,104.7,0,0,0-22.71-32.81,107.36,107.36,0,0,0-148.75-.13,102.78,102.78,0,0,0-22.71,32.83A99.23,99.23,0,0,0,367.45,115a98.41,98.41,0,0,0,8.33,40.4,102.87,102.87,0,0,0,22.71,32.68,107.85,107.85,0,0,0,33.65,22,106.9,106.9,0,0,0,81.57,0,108.08,108.08,0,0,0,33.54-22,102.53,102.53,0,0,0,22.71-32.81A98.62,98.62,0,0,0,578.27,115,98.43,98.43,0,0,0,569.95,74.62Zm-35.44,66a67.06,67.06,0,0,1-14.34,21.26,68.79,68.79,0,0,1-21.29,14.42,66,66,0,0,1-52,0,69.06,69.06,0,0,1-21.31-14.42,67.29,67.29,0,0,1-14.32-21.26,65.73,65.73,0,0,1,0-51.33,67.82,67.82,0,0,1,14.32-21.13,69.34,69.34,0,0,1,21.31-14.42,66,66,0,0,1,52,0,69.07,69.07,0,0,1,21.29,14.42A67.59,67.59,0,0,1,534.51,89.3a65.73,65.73,0,0,1,0,51.33Z"/><path class="cls-2" d="M762.86,15.59l-57.68,98.69L650,15.59H606.48V214.47h37.79V80.73l60.18,106.65L767.08,81.71V214.47h37.79V15.59Z"/><path class="cls-2" d="M943.58,15.59H914.76l-90,198.87h40.48l17.85-39.77h92.4l17.62,39.77h40.48Zm-46.44,127L929.3,71,961,142.63Z"/><path class="cls-2" d="M1198.87,15.59h-16.28V145.37L1098.29,15.59H1055V214.47h37.79V75l89.75,139.46h37.79V81.77Z"/><path class="cls-2" d="M1461.72,15.59l-42.52,128.78L1382.9,15.59h-31.83l-36.29,128.52-42-128.52H1232l64.64,198.87h33.81l36.8-122.8,36.55,122.8h33.81l64.64-198.87Z"/><path class="cls-2" d="M1526.65,15.83V214.47h38.54V15.83Z"/><path class="cls-2" d="M1728.37,15.59V145.37L1644.1,15.59h-43.26V214.47h37.79V75l89.75,139.46h37.79V15.59Z"/><path class="cls-2" d="M1908.61,111.54v32.83h40.77V163.5a77.7,77.7,0,0,1-21.33,13.18,65,65,0,0,1-25.3,5A68.19,68.19,0,0,1,1854.49,162a68.88,68.88,0,0,1-14.64-21.26,65.34,65.34,0,0,1,0-51.7,67,67,0,0,1,14.66-21.13,69,69,0,0,1,21.71-14.3,67.82,67.82,0,0,1,26.56-5.22,71.65,71.65,0,0,1,31,6.59q13.89,6.6,25.06,21.76l26.06-26.61a110.4,110.4,0,0,0-35.68-27.85q-21-10.44-46.61-10.44a106.88,106.88,0,0,0-41.51,8.09,109.3,109.3,0,0,0-33.94,22,102.23,102.23,0,0,0-22.87,32.68,97.82,97.82,0,0,0-8.33,40.16,98.55,98.55,0,0,0,8.46,40.77,104.08,104.08,0,0,0,22.87,32.83,105.87,105.87,0,0,0,33.81,21.87,108.3,108.3,0,0,0,41.51,8,109.57,109.57,0,0,0,22.5-2.37,102.8,102.8,0,0,0,22.13-7.33A110.5,110.5,0,0,0,1968,196a108.44,108.44,0,0,0,18.39-18V111.54Z"/></svg>