<svg id="Layer_1" data-name="Layer 1" xmlns="http://www.w3.org/2000/svg" viewBox="0 0 1881.74 1500"><defs><style>.cls-1{fill:#ce1717;}.cls-2{fill:#fff;}.cls-3{fill:none;stroke:#fff;stroke-miterlimit:10;stroke-width:128.27px;}</style></defs><title>White Icon</title><path class="cls-1" d="M1404.63,438.28h-356.8Q1015,357,947.89,289.87c-4.93-4.93-10.13-9.86-15.06-14.51h627.07c8.21,0,13.42,5.75,13.14,14.51C1572.22,330.39,1591.38,438.28,1404.63,438.28Z"/><path class="cls-1" d="M1460.22,703.62H1068.37a451.86,451.86,0,0,0,10.68-98.85,447,447,0,0,0-4.38-64.08h540.54c8.49,0,13.42,5.75,13.42,14.51C1627.53,595.73,1646.7,703.62,1460.22,703.62Z"/><path class="cls-1" d="M1183.38,1237.86h-93.92L975.82,1074.93h362.55c8.49,0,13.42,5.75,13.42,14.79C1351,1130.25,1370.13,1237.86,1183.38,1237.86Z"/><path class="cls-1" d="M1515.53,820.55c0-8.76-4.93-14.51-13.14-14.51h-471a450.66,450.66,0,0,1-34,55.59,474.69,474.69,0,0,1-78,85.16l-.27.27c-6.85,5.75-14,11.23-21.09,16.7l3.56,5.2h445.52C1533.88,969,1514.71,861.07,1515.53,820.55Z"/><path class="cls-2" d="M746.38,1237.24,466.74,836.77v400.46H299.25V272H632.1c91.23,0,170.46,33,235.48,98s98,144,98,234.86c0,70.47-20.33,134.67-60.42,190.79C865,851.91,813,892.35,750.78,915.84l-19.5,7.36,219.41,314ZM466.74,770.82H632.1c45.52,0,85-16.38,117.29-48.69s48.69-71.77,48.69-117.29c0-45.09-16.37-84.43-48.65-116.95s-71.79-49-117.33-49H466.74Z"/><rect class="cls-3" x="83.73" y="86.25" width="1714.29" height="1336.72" rx="52.78" ry="52.78"/></svg>